<?xml version="1.0" encoding="UTF-8"?>
<svg xmlns="http://www.w3.org/2000/svg" xmlns:xlink="http://www.w3.org/1999/xlink" width="150px" height="150px" viewBox="0 0 150 150" version="1.1">
<g id="surface1">
<path style="fill:none;stroke-width:2;stroke-linecap:butt;stroke-linejoin:miter;stroke:rgb(0%,0%,0%);stroke-opacity:1;stroke-miterlimit:4;" d="M 346.245312 248.077187 C 346.245312 236.870625 337.167656 227.792969 325.961094 227.792969 C 314.754531 227.792969 305.676875 236.870625 305.676875 248.077187 C 305.676875 259.266719 314.754531 268.344375 325.961094 268.344375 C 337.167656 268.344375 346.245312 259.266719 346.245312 248.077187 " transform="matrix(0.229358,0,0,0.229358,0,0)"/>
<path style="fill:none;stroke-width:2;stroke-linecap:butt;stroke-linejoin:miter;stroke:rgb(0%,0%,0%);stroke-opacity:1;stroke-miterlimit:4;" d="M 403.896094 271.852812 C 403.896094 260.544062 394.733281 251.38125 383.424531 251.38125 C 372.115781 251.38125 362.935937 260.544062 362.935937 271.852812 C 362.935937 283.178594 372.115781 292.341406 383.424531 292.341406 C 394.733281 292.341406 403.896094 283.178594 403.896094 271.852812 " transform="matrix(0.229358,0,0,0.229358,0,0)"/>
<path style="fill:none;stroke-width:2;stroke-linecap:butt;stroke-linejoin:miter;stroke:rgb(0%,0%,0%);stroke-opacity:1;stroke-miterlimit:4;" d="M 288.253906 271.903906 C 288.253906 260.731406 279.193281 251.670781 268.020781 251.670781 C 256.848281 251.670781 247.787656 260.731406 247.787656 271.903906 C 247.787656 283.093437 256.848281 292.154062 268.020781 292.154062 C 279.193281 292.154062 288.253906 283.093437 288.253906 271.903906 " transform="matrix(0.229358,0,0,0.229358,0,0)"/>
<path style="fill:none;stroke-width:2;stroke-linecap:butt;stroke-linejoin:miter;stroke:rgb(0%,0%,0%);stroke-opacity:1;stroke-miterlimit:4;" d="M 264.631562 328.703125 C 264.631562 317.530625 255.570937 308.452969 244.381406 308.452969 C 233.191875 308.452969 224.13125 317.530625 224.13125 328.703125 C 224.13125 339.892656 233.191875 348.953281 244.381406 348.953281 C 255.570937 348.953281 264.631562 339.892656 264.631562 328.703125 " transform="matrix(0.229358,0,0,0.229358,0,0)"/>
<path style="fill:none;stroke-width:2;stroke-linecap:butt;stroke-linejoin:miter;stroke:rgb(0%,0%,0%);stroke-opacity:1;stroke-miterlimit:4;" d="M 288.424219 385.45125 C 288.424219 374.227656 279.3125 365.115937 268.088906 365.115937 C 256.865312 365.115937 247.753594 374.227656 247.753594 385.45125 C 247.753594 396.674844 256.865312 405.786562 268.088906 405.786562 C 279.3125 405.786562 288.424219 396.674844 288.424219 385.45125 " transform="matrix(0.229358,0,0,0.229358,0,0)"/>
<path style="fill:none;stroke-width:2;stroke-linecap:butt;stroke-linejoin:miter;stroke:rgb(0%,0%,0%);stroke-opacity:1;stroke-miterlimit:4;" d="M 346.262344 409.141719 C 346.262344 397.935156 337.184687 388.840469 325.978125 388.840469 C 314.754531 388.840469 305.676875 397.935156 305.676875 409.141719 C 305.676875 420.348281 314.754531 429.442969 325.978125 429.442969 C 337.184687 429.442969 346.262344 420.348281 346.262344 409.141719 " transform="matrix(0.229358,0,0,0.229358,0,0)"/>
<path style=" stroke:none;fill-rule:nonzero;fill:rgb(0%,0%,0%);fill-opacity:1;" d="M 146.90625 73.730469 C 147.640625 74.503906 147.425781 75.664062 146.71875 76.480469 C 144.054688 79.550781 142.191406 81.601562 141.121094 82.636719 C 138.660156 85.023438 137.03125 86.585938 136.238281 87.328125 C 128.8125 94.265625 120.675781 100.214844 111.828125 105.171875 C 101.425781 111.003906 89.902344 114.570312 77.988281 115.308594 C 74.855469 115.5 71.691406 115.421875 68.492188 115.070312 C 62.382812 114.402344 56.761719 113.171875 51.625 111.378906 C 38.324219 106.730469 25.933594 98.820312 15.324219 89.398438 C 12.09375 86.523438 8.894531 83.296875 5.695312 79.925781 C 4.855469 79.039062 3.8125 77.835938 2.566406 76.324219 C 1.507812 75.035156 2.203125 73.871094 3.1875 72.855469 C 6.839844 69.078125 9.816406 66.128906 12.113281 64.003906 C 20.574219 56.175781 29.78125 49.285156 39.945312 44.023438 C 44.953125 41.433594 50.1875 39.304688 55.648438 37.636719 C 65.886719 34.515625 76.222656 33.96875 86.660156 35.996094 C 104.226562 39.414062 120.03125 48.722656 133.488281 60.265625 C 135.585938 62.0625 137.519531 63.890625 139.296875 65.746094 C 141.152344 67.679688 143.6875 70.34375 146.90625 73.730469 Z M 138.515625 74.871094 C 137.121094 73.269531 135.636719 71.859375 133.023438 69.269531 C 126.679688 62.960938 119.570312 57.457031 111.695312 52.753906 C 103.097656 47.621094 94.230469 44.03125 84.464844 42.367188 C 80.054688 41.617188 75.429688 41.394531 70.582031 41.699219 C 66.296875 41.96875 61.746094 42.824219 56.9375 44.265625 C 47.171875 47.183594 38.175781 52.109375 29.992188 58.089844 C 26.660156 60.527344 23.746094 62.8125 21.246094 64.941406 C 18.4375 67.335938 15.4375 70.125 12.242188 73.308594 C 11.738281 73.8125 11.269531 74.320312 10.835938 74.832031 C 10.707031 74.984375 10.707031 75.210938 10.832031 75.363281 C 11.273438 75.894531 11.710938 76.378906 12.148438 76.820312 C 14.871094 79.582031 17.910156 82.664062 21.089844 85.402344 C 23.304688 87.308594 24.558594 88.375 24.851562 88.601562 C 30.414062 92.878906 35.394531 96.265625 39.792969 98.753906 C 43.191406 100.675781 46.957031 102.445312 51.09375 104.0625 C 57.160156 106.4375 63.464844 108.039062 69.742188 108.542969 C 71.554688 108.6875 72.640625 108.765625 72.996094 108.777344 C 75.378906 108.863281 77.789062 108.773438 80.222656 108.503906 C 89.503906 107.480469 98.285156 104.773438 106.570312 100.378906 C 113.085938 96.921875 119.277344 92.773438 125.140625 87.929688 C 129.628906 84.226562 134 80.148438 138.25 75.695312 C 138.496094 75.4375 138.613281 75.234375 138.601562 75.082031 C 138.597656 75.003906 138.566406 74.929688 138.515625 74.871094 Z M 138.515625 74.871094 "/>
<path style=" stroke:none;fill-rule:nonzero;fill:rgb(0%,0%,0%);fill-opacity:1;" d="M 91.957031 98.617188 C 91.710938 99.9375 90.242188 101.070312 89.050781 101.777344 C 78.410156 108.082031 63.792969 106.039062 54.660156 97.921875 C 49.785156 93.59375 46.609375 88.152344 45.125 81.589844 C 43.183594 73.015625 45.382812 64 50.703125 57.078125 C 58.824219 46.515625 73.152344 42.523438 85.707031 47.332031 C 96.003906 51.273438 103.613281 60.792969 104.816406 71.839844 C 105.148438 74.875 104.703125 77.71875 103.480469 80.375 C 101.917969 83.78125 98.859375 86.320312 95.417969 87.792969 C 93.140625 88.769531 88.265625 90.289062 90.179688 93.898438 C 90.871094 95.191406 92.328125 96.605469 91.957031 98.617188 Z M 79.414062 56.898438 C 79.414062 54.328125 77.332031 52.246094 74.761719 52.246094 C 72.191406 52.246094 70.109375 54.328125 70.109375 56.898438 C 70.109375 59.464844 72.191406 61.546875 74.761719 61.546875 C 77.332031 61.546875 79.414062 59.464844 79.414062 56.898438 Z M 92.636719 62.351562 C 92.636719 59.757812 90.535156 57.65625 87.941406 57.65625 C 85.347656 57.65625 83.242188 59.757812 83.242188 62.351562 C 83.242188 64.949219 85.347656 67.050781 87.941406 67.050781 C 90.535156 67.050781 92.636719 64.949219 92.636719 62.351562 Z M 66.113281 62.363281 C 66.113281 59.800781 64.035156 57.722656 61.472656 57.722656 C 58.910156 57.722656 56.832031 59.800781 56.832031 62.363281 C 56.832031 64.929688 58.910156 67.007812 61.472656 67.007812 C 64.035156 67.007812 66.113281 64.929688 66.113281 62.363281 Z M 60.695312 75.390625 C 60.695312 72.828125 58.617188 70.746094 56.050781 70.746094 C 53.484375 70.746094 51.40625 72.828125 51.40625 75.390625 C 51.40625 77.957031 53.484375 80.035156 56.050781 80.035156 C 58.617188 80.035156 60.695312 77.957031 60.695312 75.390625 Z M 96.128906 74.382812 C 94.453125 72.550781 90.980469 73 88.378906 75.386719 C 85.777344 77.769531 85.027344 81.1875 86.707031 83.015625 C 88.382812 84.847656 91.851562 84.398438 94.453125 82.015625 C 97.054688 79.628906 97.804688 76.214844 96.128906 74.382812 Z M 66.152344 88.40625 C 66.152344 85.832031 64.0625 83.742188 61.488281 83.742188 C 58.914062 83.742188 56.824219 85.832031 56.824219 88.40625 C 56.824219 90.980469 58.914062 93.070312 61.488281 93.070312 C 64.0625 93.070312 66.152344 90.980469 66.152344 88.40625 Z M 79.417969 93.839844 C 79.417969 91.269531 77.335938 89.183594 74.765625 89.183594 C 72.191406 89.183594 70.109375 91.269531 70.109375 93.839844 C 70.109375 96.410156 72.191406 98.496094 74.765625 98.496094 C 77.335938 98.496094 79.417969 96.410156 79.417969 93.839844 Z M 79.417969 93.839844 "/>
<path style=" stroke:none;fill-rule:nonzero;fill:rgb(95.686275%,39.215687%,8.627451%);fill-opacity:1;" d="M 79.414062 56.898438 C 79.414062 54.328125 77.332031 52.246094 74.761719 52.246094 C 72.191406 52.246094 70.109375 54.328125 70.109375 56.898438 C 70.109375 59.464844 72.191406 61.546875 74.761719 61.546875 C 77.332031 61.546875 79.414062 59.464844 79.414062 56.898438 Z M 79.414062 56.898438 "/>
<path style=" stroke:none;fill-rule:nonzero;fill:rgb(94.901961%,14.117648%,15.294118%);fill-opacity:1;" d="M 92.636719 62.351562 C 92.636719 59.757812 90.535156 57.65625 87.941406 57.65625 C 85.347656 57.65625 83.242188 59.757812 83.242188 62.351562 C 83.242188 64.949219 85.347656 67.050781 87.941406 67.050781 C 90.535156 67.050781 92.636719 64.949219 92.636719 62.351562 Z M 92.636719 62.351562 "/>
<path style=" stroke:none;fill-rule:nonzero;fill:rgb(95.686275%,85.490197%,8.627451%);fill-opacity:1;" d="M 66.113281 62.363281 C 66.113281 59.800781 64.035156 57.722656 61.472656 57.722656 C 58.910156 57.722656 56.832031 59.800781 56.832031 62.363281 C 56.832031 64.929688 58.910156 67.007812 61.472656 67.007812 C 64.035156 67.007812 66.113281 64.929688 66.113281 62.363281 Z M 66.113281 62.363281 "/>
<path style=" stroke:none;fill-rule:nonzero;fill:rgb(23.529412%,74.901962%,14.509805%);fill-opacity:1;" d="M 60.695312 75.390625 C 60.695312 72.828125 58.617188 70.746094 56.050781 70.746094 C 53.484375 70.746094 51.40625 72.828125 51.40625 75.390625 C 51.40625 77.957031 53.484375 80.035156 56.050781 80.035156 C 58.617188 80.035156 60.695312 77.957031 60.695312 75.390625 Z M 60.695312 75.390625 "/>
<path style=" stroke:none;fill-rule:nonzero;fill:rgb(18.039216%,56.470591%,100%);fill-opacity:1;" d="M 66.152344 88.40625 C 66.152344 85.832031 64.0625 83.742188 61.488281 83.742188 C 58.914062 83.742188 56.824219 85.832031 56.824219 88.40625 C 56.824219 90.980469 58.914062 93.070312 61.488281 93.070312 C 64.0625 93.070312 66.152344 90.980469 66.152344 88.40625 Z M 66.152344 88.40625 "/>
<path style=" stroke:none;fill-rule:nonzero;fill:rgb(71.764708%,16.078432%,76.862746%);fill-opacity:1;" d="M 79.417969 93.839844 C 79.417969 91.269531 77.335938 89.183594 74.765625 89.183594 C 72.191406 89.183594 70.109375 91.269531 70.109375 93.839844 C 70.109375 96.410156 72.191406 98.496094 74.765625 98.496094 C 77.335938 98.496094 79.417969 96.410156 79.417969 93.839844 Z M 79.417969 93.839844 "/>
</g>
</svg>
